<svg width="206" height="81" viewBox="0 0 206 81" fill="none" xmlns="http://www.w3.org/2000/svg">
<path d="M23.9962 59.226C19.7159 59.226 15.7849 58.5969 12.2034 57.3386C8.66555 56.0803 5.8047 54.2363 3.62084 51.8065C1.43698 49.3333 0.235857 46.2961 0.0174709 42.6948C-0.0698835 41.2196 0.170341 39.5925 0.738144 37.8135C1.30595 36.0346 2.09214 34.2773 3.09671 32.5418C4.14496 30.7628 5.36792 29.1791 6.76559 27.7907C8.20694 26.3588 9.73564 25.2741 11.3517 24.5365C11.4827 24.4497 11.6793 24.3846 11.9413 24.3412C12.2471 24.2979 12.4655 24.2762 12.5965 24.2762C12.8586 24.2762 12.9896 24.3412 12.9896 24.4714C12.9896 24.6884 12.662 25.0355 12.0069 25.5128C10.1724 26.9446 8.66555 28.5934 7.48627 30.4591C6.26331 32.3248 5.34609 34.3207 4.73461 36.4468C4.12312 38.5729 3.81738 40.7206 3.81738 42.8901C3.81738 45.45 4.36335 47.6629 5.45528 49.5286C6.59088 51.3509 8.09775 52.8478 9.97586 54.0194C11.854 55.2342 13.9942 56.1237 16.3964 56.6878C18.7987 57.2518 21.3101 57.5339 23.9307 57.5339C26.8571 57.5339 29.7398 57.2084 32.5788 56.5576C35.4615 55.9068 38.0821 54.9739 40.4407 53.759C44.0659 51.8499 46.9267 49.4852 49.0233 46.6649C51.1634 43.8446 52.2335 41.046 52.2335 38.2691C52.2335 36.7939 51.9059 35.3838 51.2508 34.0387C50.6393 32.6936 49.6347 31.4787 48.2371 30.394C47.1888 29.5696 45.9003 28.7886 44.3716 28.051C42.8866 27.3134 41.2924 26.5975 39.589 25.9033C37.9292 25.209 36.2914 24.5148 34.6753 23.8206C33.0592 23.083 31.6397 22.302 30.4168 21.4776C28.6697 20.3061 27.3812 19.0478 26.5513 17.7027C25.7652 16.3577 25.3721 15.0126 25.3721 13.6675C25.3721 12.0622 25.8307 10.5001 26.7479 8.98153C27.7088 7.46291 28.9973 6.09616 30.6133 4.88127C32.2731 3.62298 34.1293 2.64673 36.1822 1.9525C37.9729 1.34506 39.9166 0.867779 42.0131 0.520666C44.1532 0.173555 46.2498 0 48.3026 0C50.006 0 51.622 0.130167 53.1507 0.3905C54.7231 0.607445 56.099 1.01964 57.2782 1.62709C58.7633 2.32131 59.8989 3.25418 60.6851 4.42568C61.4712 5.55379 61.8643 6.74699 61.8643 8.00527C61.8643 9.74084 61.0781 11.2595 59.5058 12.5611C58.938 12.995 58.3046 13.4072 57.6058 13.7977C56.907 14.1448 56.0771 14.4485 55.1162 14.7089C54.9415 14.7523 54.745 14.774 54.5266 14.774C54.0024 14.774 53.7404 14.6221 53.7404 14.3184C53.7404 14.1448 53.8714 13.9713 54.1335 13.7977C54.4392 13.5808 54.876 13.4506 55.4438 13.4072C56.7541 13.2337 57.7368 12.7347 58.392 11.9103C59.0908 11.0859 59.4403 10.1313 59.4403 9.04661C59.4403 7.9185 59.0472 6.81208 58.261 5.72735C57.5185 4.59924 56.361 3.66637 54.7886 2.92876C53.2163 2.14776 51.2071 1.75726 48.7612 1.75726C47.3635 1.75726 45.813 1.90912 44.1096 2.21284C42.4498 2.51656 40.6372 3.01554 38.6718 3.70976C36.2695 4.53415 34.2604 5.74905 32.6443 7.35444C31.0719 8.95983 30.2857 10.6737 30.2857 12.496C30.2857 13.6242 30.657 14.774 31.3995 15.9455C32.1857 17.0736 33.4305 18.1583 35.1339 19.1996C36.5753 20.0674 38.2132 20.9352 40.0476 21.803C41.882 22.6274 43.7383 23.4735 45.6164 24.3412C47.4946 25.1656 49.198 26.0551 50.7267 27.0097C53.1289 28.4849 54.8542 30.0686 55.9024 31.7608C56.9507 33.4529 57.4748 35.1885 57.4748 36.9675C57.4748 39.0501 56.8415 41.1545 55.5748 43.2806C54.3519 45.3632 52.7358 47.3374 50.7267 49.2032C48.7175 51.0255 46.5118 52.6526 44.1096 54.0844C41.3142 55.7332 38.1476 56.9915 34.6098 57.8593C31.1156 58.7704 27.5778 59.226 23.9962 59.226Z" fill="url(#paint0_linear_301_9)"/>
<path d="M77.408 53.4336C76.9275 53.477 76.3815 53.3685 75.7701 53.1082C75.1586 52.8478 74.6126 52.3706 74.1322 51.6763C73.6954 50.9821 73.477 50.0059 73.477 48.7476C73.477 47.7062 73.6736 46.448 74.0666 44.9727C73.5425 45.7971 72.8655 46.8168 72.0357 48.0317C71.2058 49.2032 70.3104 50.2445 69.3495 51.1557C68.5196 51.9367 67.7335 52.5007 66.9909 52.8478C66.2484 53.195 65.5714 53.3685 64.96 53.3685C63.8243 53.3685 62.9071 52.8695 62.2083 51.8716C61.5095 50.8303 61.16 49.4852 61.16 47.8364C61.16 46.1008 61.5968 44.1266 62.4704 41.9138C63.3439 39.701 64.7634 37.4013 66.7289 35.015C67.9955 33.4963 69.5242 32.2814 71.315 31.3703C73.1494 30.4157 74.9402 29.9384 76.6873 29.9384C77.6918 29.9384 78.6527 30.112 79.57 30.4591C80.4872 30.7628 81.2952 31.2835 81.9941 32.0211C82.2998 32.3248 82.4527 32.6719 82.4527 33.0624C82.4527 33.3228 82.3435 33.5397 82.1251 33.7133C81.9067 33.8868 81.6228 33.9302 81.2734 33.8434C80.7929 32.3248 79.7665 31.5655 78.1941 31.5655C77.4516 31.5655 76.5999 31.8042 75.639 32.2814C74.154 33.0624 72.6035 34.3424 70.9874 36.1214C69.415 37.9003 68.0392 39.7444 66.8599 41.6535C66.6852 41.9138 66.4013 42.4128 66.0082 43.1504C65.6588 43.888 65.3094 44.7124 64.96 45.6236C64.6105 46.5347 64.3703 47.4242 64.2393 48.292C64.1956 48.5523 64.1738 48.7476 64.1738 48.8777C64.1738 48.9645 64.1738 49.1164 64.1738 49.3333C64.1738 50.7652 64.7197 51.4811 65.8117 51.4811C67.122 51.4811 68.607 50.5265 70.2667 48.6174C71.4023 47.229 72.4288 45.7754 73.346 44.2568C74.2632 42.7382 75.2023 41.1111 76.1631 39.3756C76.8183 38.204 77.4298 37.2278 77.9976 36.4468C78.5654 35.6658 79.3734 35.2753 80.4217 35.2753C80.9021 35.2753 81.3826 35.3404 81.863 35.4705C82.3435 35.6007 82.8458 35.6224 83.3699 35.5356C83.0205 35.8827 82.54 36.5336 81.9285 37.4881C81.3607 38.4427 80.7493 39.5274 80.0941 40.7423C79.4389 41.9572 78.8493 43.1938 78.3252 44.4521C77.801 45.7103 77.4298 46.7951 77.2114 47.7062C77.1677 47.9666 77.1022 48.3354 77.0149 48.8127C76.9712 49.2899 76.9493 49.6371 76.9493 49.854C76.9493 51.0689 77.2988 51.6763 77.9976 51.6763C78.6964 51.6763 79.4389 51.2641 80.2251 50.4398C81.055 49.6154 81.863 48.5957 82.6492 47.3808C83.4354 46.1659 84.1561 44.951 84.8112 43.7361C85.4664 42.4779 85.9905 41.4582 86.3836 40.6772C86.5583 40.2433 86.8204 40.0264 87.1698 40.0264C87.3882 40.0264 87.4974 40.1782 87.4974 40.482C87.4974 40.6121 87.4319 40.8508 87.3008 41.1979C86.7767 42.2826 86.1434 43.5192 85.4009 44.9076C84.6584 46.2527 83.8503 47.5761 82.9768 48.8777C82.1032 50.136 81.186 51.1991 80.2251 52.0668C79.3079 52.8912 78.3688 53.3468 77.408 53.4336Z" fill="url(#paint1_linear_301_9)"/>
<path d="M87.7963 53.4987C85.6561 53.4987 84.1274 52.9563 83.2102 51.8716C82.3366 50.7435 81.8999 49.572 81.8999 48.3571C81.8999 47.3591 82.1401 46.448 82.6205 45.6236C83.1447 44.7992 83.7562 44.3653 84.455 44.3219C85.3285 42.6297 86.2676 40.7857 87.2722 38.7898C88.3204 36.7939 89.2813 34.8631 90.1549 32.9974C90.7663 31.7391 91.5307 30.5242 92.4479 29.3527C93.4088 28.1812 94.4571 27.5086 95.5927 27.3351H96.2478C96.5972 27.3351 96.903 27.3568 97.165 27.4002C97.4708 27.4436 97.7765 27.5303 98.0823 27.6605C98.5627 27.8775 98.8029 28.2029 98.8029 28.6368C98.8029 28.8971 98.6501 29.0273 98.3443 29.0273C98.2133 29.0273 98.0386 28.9622 97.8202 28.832C97.2961 28.6151 96.8375 28.5066 96.4444 28.5066C96.1823 28.5066 95.9421 28.5717 95.7237 28.7018C94.8938 29.1357 94.3042 29.7432 93.9548 30.5242C93.649 31.3052 93.4962 32.1296 93.4962 32.9974C93.4962 33.6916 93.5617 34.4075 93.6927 35.1451C93.8674 35.8393 94.064 36.4685 94.2823 37.0325C94.7628 38.2474 95.2651 39.4406 95.7892 40.6121C96.357 41.7836 96.6409 43.0419 96.6409 44.387C96.6409 45.6887 96.2041 47.0771 95.3306 48.5523C94.4571 49.9842 93.3433 51.134 91.9893 52.0018L92.4479 52.0668C92.6663 52.1102 92.8192 52.1319 92.9065 52.1319C92.9939 52.1319 93.0594 52.1319 93.1031 52.1319C94.1076 52.1319 95.0467 51.8499 95.9202 51.2858C96.8375 50.6784 97.6455 49.9408 98.3443 49.073C99.0432 48.2052 99.8293 46.9903 100.703 45.4283C101.62 43.8663 102.494 42.2175 103.324 40.482C103.455 40.265 103.607 40.1565 103.782 40.1565C104.001 40.1565 104.153 40.2433 104.241 40.4169C104.372 40.5471 104.394 40.7206 104.306 40.9376C103.738 42.1524 103.083 43.4758 102.341 44.9076C101.642 46.2961 100.834 47.6412 99.9167 48.9428C98.9995 50.2011 97.9294 51.2425 96.7064 52.0668C95.5271 52.8478 94.195 53.2383 92.71 53.2383C92.3605 53.2383 91.9893 53.2166 91.5962 53.1733C91.2031 53.1299 90.81 53.0431 90.4169 52.9129C89.9801 53.0865 89.5215 53.2167 89.0411 53.3034C88.6043 53.4336 88.1894 53.4987 87.7963 53.4987ZM89.7618 51.5462C90.5043 50.9387 91.1594 50.0492 91.7272 48.8777C92.3387 47.7062 92.6445 46.1659 92.6445 44.2568C92.6445 42.5646 92.4697 40.764 92.1203 38.8549C91.7709 36.9458 91.5962 35.2536 91.5962 33.7784C91.5962 33.4746 91.5962 33.2143 91.5962 32.9974C91.6399 32.737 91.6836 32.4984 91.7272 32.2814C91.1594 33.4529 90.5043 34.8197 89.7618 36.3817C89.0193 37.9003 88.2767 39.3755 87.5342 40.8074C86.7917 42.2392 86.1584 43.4541 85.6343 44.4521C85.6343 44.4521 85.7435 44.4738 85.9618 44.5172C86.2239 44.5172 86.4641 44.669 86.6825 44.9727C86.9009 45.2331 86.9883 45.7754 86.9446 46.5998C86.9009 47.6846 87.1411 48.7042 87.6653 49.6587C88.2331 50.5699 88.9319 51.1991 89.7618 51.5462ZM87.2722 52.4573C87.5342 52.4573 87.7744 52.4357 87.9928 52.3923C88.2112 52.3055 88.4078 52.2404 88.5825 52.197C87.9273 51.7197 87.3377 51.0906 86.8136 50.3096C86.3331 49.4852 86.0492 48.4439 85.9618 47.1856C85.1757 48.01 84.7826 48.8994 84.7826 49.854C84.7826 50.5482 85.0009 51.1557 85.4377 51.6763C85.8745 52.197 86.486 52.4573 87.2722 52.4573Z" fill="url(#paint2_linear_301_9)"/>
<path d="M106.326 53.2383C105.104 53.2383 104.012 52.8261 103.051 52.0018C102.09 51.134 101.609 49.7889 101.609 47.9666C101.609 46.5347 101.871 44.7775 102.396 42.6948C102.963 40.5687 103.64 38.3776 104.427 36.1214C105.256 33.8218 106.064 31.7391 106.851 29.8734H103.378C103.073 29.8734 102.92 29.6564 102.92 29.2225C102.92 29.0056 102.963 28.8103 103.051 28.6368C103.182 28.4632 103.356 28.3764 103.575 28.3764H107.506C108.248 26.7276 109.034 25.1223 109.864 23.5602C110.694 21.9982 111.502 20.523 112.288 19.1346C113.293 17.399 114.363 16.0973 115.499 15.2295C116.634 14.3618 117.617 13.9279 118.447 13.9279C119.102 13.9279 119.648 14.1882 120.085 14.7089C120.522 15.1862 120.74 15.9238 120.74 16.9217C120.74 17.5292 120.609 18.3753 120.347 19.46C120.085 20.5013 119.67 21.6077 119.102 22.7792C118.796 23.3867 118.36 24.2545 117.792 25.3826C117.268 26.5107 116.744 27.5086 116.219 28.3764H119.364C119.67 28.3764 119.823 28.5934 119.823 29.0273C119.823 29.2008 119.779 29.3961 119.692 29.613C119.604 29.7866 119.473 29.8734 119.299 29.8734H115.433C114.341 31.7391 113.096 33.5614 111.699 35.3404C110.301 37.1193 108.641 38.8983 106.72 40.6772C106.589 41.0677 106.414 41.6318 106.195 42.3694C106.021 43.107 105.846 43.8663 105.671 44.6473C105.54 45.3849 105.409 46.0141 105.278 46.5347C105.191 47.0554 105.147 47.3157 105.147 47.3157C105.016 47.8798 104.951 48.4005 104.951 48.8777C104.951 49.7889 105.169 50.4614 105.606 50.8953C106.043 51.2858 106.545 51.4811 107.113 51.4811C107.462 51.4811 107.812 51.4377 108.161 51.3509C108.51 51.2208 108.903 51.0038 109.34 50.7001C110.869 49.6154 112.201 48.1401 113.337 46.2744C114.516 44.4087 115.542 42.608 116.416 40.8725C116.678 40.3518 116.94 40.0915 117.202 40.0915C117.377 40.0915 117.464 40.2216 117.464 40.482C117.464 40.6121 117.399 40.8508 117.268 41.1979C116.307 43.1938 115.499 44.7992 114.844 46.0141C114.188 47.229 113.555 48.2486 112.944 49.073C112.332 49.854 111.611 50.635 110.782 51.416C110.17 52.0235 109.471 52.479 108.685 52.7828C107.899 53.0865 107.113 53.2383 106.326 53.2383ZM111.502 28.3764H114.844C115.455 27.2483 116.023 26.1419 116.547 25.0572C117.115 23.9724 117.617 22.8877 118.054 21.803C118.36 21.1088 118.622 20.3278 118.84 19.46C119.058 18.5922 119.168 17.9197 119.168 17.4424C119.168 16.7916 119.015 16.4661 118.709 16.4661C118.491 16.4661 118.163 16.6614 117.726 17.0519C117.333 17.399 116.831 18.0064 116.219 18.8742C115.433 19.959 114.647 21.3691 113.861 23.1047C113.118 24.7968 112.332 26.5541 111.502 28.3764ZM107.244 38.5945C108.51 37.2929 109.69 35.9044 110.782 34.4292C111.917 32.954 112.965 31.4354 113.926 29.8734H110.847C110.148 31.4787 109.493 33.0408 108.882 34.5594C108.27 36.078 107.724 37.423 107.244 38.5945Z" fill="url(#paint3_linear_301_9)"/>
<path d="M124.093 53.3034C123.263 53.3034 122.433 52.978 121.603 52.3272C120.773 51.633 120.358 50.5265 120.358 49.0079C120.358 47.8364 120.642 46.4914 121.21 44.9727C121.734 43.4975 122.433 42.0657 123.306 40.6772C124.224 39.2888 124.879 38.1607 125.272 37.2929C125.403 36.9458 125.468 36.642 125.468 36.3817C125.468 35.6007 124.966 35.0366 123.961 34.6895C123.001 34.3424 121.734 34.1472 120.162 34.1038L119.375 36.2515C118.895 37.64 118.218 39.2671 117.344 41.1328C116.515 42.9985 115.575 44.7992 114.527 46.5347C113.523 48.2703 112.474 49.6587 111.382 50.7001C111.295 50.7869 111.186 50.8303 111.055 50.8303C110.88 50.8303 110.771 50.7218 110.727 50.5048C110.64 50.2879 110.727 50.0276 110.989 49.7238C112.693 47.4676 114.221 44.9727 115.575 42.2392C116.929 39.4623 118.065 36.642 118.982 33.7784C119.943 30.9147 120.642 28.268 121.079 25.8382C121.21 25.1439 121.45 24.645 121.799 24.3412C122.149 23.9941 122.52 23.8206 122.913 23.8206C123.481 23.8206 124.005 24.1026 124.486 24.6667C124.966 25.1873 125.206 25.9466 125.206 26.9446C125.206 27.1181 125.184 27.3134 125.141 27.5303C125.141 27.7473 125.119 27.9642 125.075 28.1812C124.901 29.0923 124.376 29.9601 123.503 30.7845C122.673 31.5655 121.996 32.1513 121.472 32.5418C121.909 32.5852 122.367 32.6286 122.848 32.6719C123.328 32.6719 123.852 32.6719 124.42 32.6719C126.473 32.6719 128.504 32.5418 130.513 32.2814C130.6 32.5418 130.644 32.737 130.644 32.8672C130.644 33.4313 130.469 34.1472 130.12 35.015C129.814 35.8827 129.487 36.6637 129.137 37.358C128.963 37.7485 128.613 38.4644 128.089 39.5057C127.565 40.5037 126.997 41.6535 126.386 42.9551C125.774 44.2134 125.25 45.4717 124.813 46.73C124.42 47.9449 124.224 48.9862 124.224 49.854C124.224 50.9821 124.66 51.5462 125.534 51.5462C126.189 51.5462 126.91 51.134 127.696 50.3096C128.482 49.4418 129.246 48.4005 129.989 47.1856C130.775 45.9273 131.474 44.7124 132.085 43.5409C132.741 42.326 133.243 41.3714 133.592 40.6772C133.767 40.2433 134.007 40.0264 134.313 40.0264C134.488 40.0264 134.575 40.1782 134.575 40.482C134.575 40.6555 134.51 40.9159 134.378 41.263C133.898 42.2609 133.33 43.389 132.675 44.6473C132.02 45.9056 131.277 47.1422 130.448 48.3571C129.661 49.572 128.788 50.635 127.827 51.5462C126.91 52.414 125.905 52.978 124.813 53.2383C124.682 53.2817 124.442 53.3034 124.093 53.3034Z" fill="url(#paint4_linear_301_9)"/>
<path d="M147.53 53.4336C147.05 53.477 146.504 53.3685 145.892 53.1082C145.281 52.8478 144.735 52.3706 144.254 51.6763C143.818 50.9821 143.599 50.0059 143.599 48.7476C143.599 47.7062 143.796 46.448 144.189 44.9727C143.665 45.7971 142.988 46.8168 142.158 48.0317C141.328 49.2032 140.433 50.2445 139.472 51.1557C138.642 51.9367 137.856 52.5007 137.113 52.8478C136.371 53.195 135.694 53.3685 135.082 53.3685C133.947 53.3685 133.029 52.8695 132.331 51.8716C131.632 50.8303 131.282 49.4852 131.282 47.8364C131.282 46.1008 131.719 44.1266 132.593 41.9138C133.466 39.701 134.886 37.4013 136.851 35.015C138.118 33.4963 139.647 32.2814 141.437 31.3703C143.272 30.4157 145.063 29.9384 146.81 29.9384C147.814 29.9384 148.775 30.112 149.692 30.4591C150.61 30.7628 151.418 31.2835 152.116 32.0211C152.422 32.3248 152.575 32.6719 152.575 33.0624C152.575 33.3228 152.466 33.5397 152.247 33.7133C152.029 33.8868 151.745 33.9302 151.396 33.8434C150.915 32.3248 149.889 31.5655 148.316 31.5655C147.574 31.5655 146.722 31.8042 145.761 32.2814C144.276 33.0624 142.726 34.3424 141.11 36.1214C139.537 37.9003 138.162 39.7444 136.982 41.6535C136.808 41.9138 136.524 42.4128 136.131 43.1504C135.781 43.888 135.432 44.7124 135.082 45.6236C134.733 46.5347 134.493 47.4242 134.362 48.292C134.318 48.5523 134.296 48.7476 134.296 48.8777C134.296 48.9645 134.296 49.1164 134.296 49.3333C134.296 50.7652 134.842 51.4811 135.934 51.4811C137.244 51.4811 138.729 50.5265 140.389 48.6174C141.525 47.229 142.551 45.7754 143.468 44.2568C144.386 42.7382 145.325 41.1111 146.285 39.3756C146.941 38.204 147.552 37.2278 148.12 36.4468C148.688 35.6658 149.496 35.2753 150.544 35.2753C151.024 35.2753 151.505 35.3404 151.985 35.4705C152.466 35.6007 152.968 35.6224 153.492 35.5356C153.143 35.8827 152.662 36.5336 152.051 37.4881C151.483 38.4427 150.872 39.5274 150.216 40.7423C149.561 41.9572 148.972 43.1938 148.447 44.4521C147.923 45.7103 147.552 46.7951 147.334 47.7062C147.29 47.9666 147.225 48.3354 147.137 48.8127C147.093 49.2899 147.072 49.6371 147.072 49.854C147.072 51.0689 147.421 51.6763 148.12 51.6763C148.819 51.6763 149.561 51.2641 150.347 50.4398C151.177 49.6154 151.985 48.5957 152.772 47.3808C153.558 46.1659 154.278 44.951 154.934 43.7361C155.589 42.4779 156.113 41.4582 156.506 40.6772C156.681 40.2433 156.943 40.0264 157.292 40.0264C157.511 40.0264 157.62 40.1782 157.62 40.482C157.62 40.6121 157.554 40.8508 157.423 41.1979C156.899 42.2826 156.266 43.5192 155.523 44.9076C154.781 46.2527 153.973 47.5761 153.099 48.8777C152.226 50.136 151.308 51.1991 150.347 52.0668C149.43 52.8912 148.491 53.3468 147.53 53.4336Z" fill="url(#paint5_linear_301_9)"/>
<path d="M146.453 71.0062C145.929 71.0062 145.405 70.9194 144.881 70.7458C144.313 70.6157 143.745 70.594 143.178 70.6807C143.44 70.4204 143.942 69.6611 144.684 68.4028C145.427 67.1879 146.3 65.6693 147.305 63.847C148.266 62.0246 149.292 60.0504 150.384 57.9244C151.476 55.7983 152.503 53.7156 153.464 51.6763C154.424 49.5937 155.232 47.7062 155.888 46.0141C156.586 44.2785 157.023 42.9118 157.198 41.9138C156.805 42.4779 156.412 42.8033 156.019 42.8901C155.669 42.9335 155.582 42.8033 155.757 42.4996C155.844 42.326 156.019 41.9138 156.281 41.263C156.586 40.5687 156.849 39.983 157.067 39.5057C157.416 38.6379 157.7 37.6834 157.919 36.642C158.181 35.6007 158.312 34.6028 158.312 33.6482C158.312 33.0408 158.246 32.5201 158.115 32.0862C157.984 31.6523 157.744 31.4137 157.394 31.3703C157.394 31.3703 157.635 31.3269 158.115 31.2401C158.596 31.1533 159.098 31.0666 159.622 30.9798C160.146 30.893 160.496 30.8496 160.67 30.8496C160.932 30.8062 161.173 30.7845 161.391 30.7845C161.609 30.7411 161.806 30.7194 161.981 30.7194C162.374 30.7194 162.636 30.8713 162.767 31.175C162.941 31.4354 163.029 31.9994 163.029 32.8672C163.029 33.9519 162.832 35.3404 162.439 37.0325C162.09 38.6813 161.675 40.1349 161.194 41.3931C161.675 40.6121 162.286 39.6142 163.029 38.3993C163.815 37.1844 164.71 35.9478 165.715 34.6895C166.72 33.4313 167.768 32.3899 168.86 31.5655C169.952 30.6977 171.022 30.2639 172.07 30.2639C172.288 30.2639 172.572 30.3072 172.922 30.394C174.145 30.6977 174.996 31.3052 175.477 32.2164C176.001 33.0841 176.263 34.1255 176.263 35.3404C176.263 36.642 176.001 38.0739 175.477 39.6359C174.996 41.1979 174.341 42.7382 173.511 44.2568C172.681 45.732 171.764 47.0771 170.76 48.292C169.537 49.8106 168.074 51.0255 166.37 51.9367C164.667 52.8478 162.92 53.3034 161.129 53.3034C159.513 53.3034 158.006 52.8912 156.608 52.0668L150.384 67.6218C149.773 68.9235 149.183 69.813 148.615 70.2902C148.048 70.7675 147.327 71.0062 146.453 71.0062ZM159.032 51.9367C160.255 51.9367 161.631 51.3726 163.16 50.2445C164.689 49.1164 166.152 47.6845 167.549 45.949C168.991 44.17 170.192 42.3911 171.153 40.6121C171.808 39.3972 172.288 38.2908 172.594 37.2929C172.9 36.2515 173.053 35.3621 173.053 34.6245C173.053 32.9323 172.441 32.0862 171.218 32.0862C170.65 32.0862 169.908 32.3899 168.991 32.9974C168.117 33.6048 167.091 34.7112 165.912 36.3166C164.645 38.0522 163.247 40.2433 161.719 42.8901C160.233 45.4934 158.705 48.2486 157.132 51.1557C157.657 51.6763 158.29 51.9367 159.032 51.9367Z" fill="url(#paint6_linear_301_9)"/>
<path d="M169.704 74C167.433 74 165.817 73.5444 164.856 72.6332C163.895 71.7655 163.415 70.7241 163.415 69.5092C163.415 68.8584 163.502 68.2943 163.677 67.8171C163.852 67.3398 164.114 66.7323 164.463 65.9947C165.074 64.7364 165.926 63.6517 167.018 62.7405C168.11 61.8294 169.289 61.0918 170.556 60.5277C172.827 59.4864 175.404 58.6403 178.287 57.9894C181.213 57.3386 184.009 56.6227 186.673 55.8417C187.503 54.4098 188.267 52.7828 188.966 50.9604C189.665 49.0947 190.298 47.294 190.866 45.5585C191.434 43.7795 191.892 42.326 192.242 41.1979C191.718 42.1524 191.041 43.3239 190.211 44.7124C189.425 46.0575 188.529 47.3808 187.525 48.6825C186.52 49.9842 185.428 51.0689 184.249 51.9367C183.113 52.8045 181.912 53.2383 180.645 53.2383C180.165 53.2383 179.575 53.1299 178.876 52.9129C178.221 52.696 177.632 52.3055 177.108 51.7414C176.627 51.134 176.387 50.2445 176.387 49.073C176.387 47.9449 176.649 46.8602 177.173 45.8188C177.741 44.7341 178.265 43.6928 178.745 42.6948C178.614 42.6948 178.462 42.6514 178.287 42.5646C178.156 42.4779 178.09 42.3477 178.09 42.1741C178.09 42.0006 178.134 41.827 178.221 41.6535C178.396 41.3064 178.593 40.9376 178.811 40.5471C179.029 40.1566 179.226 39.7444 179.401 39.3105C180.056 37.9654 180.711 36.6854 181.366 35.4705C182.021 34.2123 182.589 33.1058 183.069 32.1513C183.55 31.1967 184.38 30.7194 185.559 30.7194H189.621C189.315 30.9798 188.922 31.2835 188.442 31.6306C188.005 31.9343 187.59 32.4116 187.197 33.0624C186.018 35.0583 184.991 36.9892 184.118 38.8549C183.244 40.6772 182.305 42.6297 181.301 44.7124C180.82 45.7103 180.471 46.6215 180.252 47.4459C180.034 48.2703 179.925 48.9862 179.925 49.5937C179.925 51.0255 180.405 51.7414 181.366 51.7414C182.414 51.7414 183.681 50.8953 185.166 49.2032C186.389 47.7713 187.612 46.0792 188.835 44.1267C190.101 42.1308 191.303 40.0915 192.438 38.0088C193.618 35.8827 194.644 33.9302 195.517 32.1513C195.998 31.1967 196.85 30.7194 198.073 30.7194H201.676C200.409 31.5872 199.427 32.7153 198.728 34.1038C198.073 35.4922 197.33 37.2712 196.5 39.4406C195.583 41.827 194.709 44.3002 193.88 46.8602C193.093 49.3767 192.198 51.915 191.193 54.4749C192.635 53.9977 194.251 53.26 196.042 52.2621C197.876 51.2641 199.427 49.8323 200.693 47.9666C201.698 46.4914 202.549 45.0812 203.248 43.7361C203.991 42.3477 204.515 41.3497 204.821 40.7423C204.995 40.3084 205.236 40.0915 205.541 40.0915C205.847 40.0915 206 40.2867 206 40.6772C206 40.8942 205.934 41.1328 205.803 41.3931C204.668 43.6494 203.641 45.5585 202.724 47.1205C201.851 48.6391 200.868 49.9625 199.776 51.0906C198.728 52.1753 197.439 53.1299 195.911 53.9543C194.382 54.822 192.438 55.6898 190.08 56.5576C189.031 58.4233 187.83 60.3541 186.476 62.35C185.166 64.3893 183.659 66.2768 181.956 68.0123C180.296 69.7913 178.44 71.2231 176.387 72.3078C174.378 73.4359 172.15 74 169.704 74ZM168.132 72.6983C169.573 72.6983 171.058 72.2644 172.587 71.3967C174.116 70.5289 175.601 69.4225 177.042 68.0774C178.483 66.7757 179.794 65.4307 180.973 64.0422C182.196 62.6972 183.179 61.504 183.921 60.4626C184.14 60.1589 184.38 59.7684 184.642 59.2911C184.904 58.8138 185.166 58.3583 185.428 57.9244C183.288 58.4884 180.929 59.0959 178.352 59.7467C175.819 60.4409 173.613 61.2002 171.735 62.0246C169.639 62.8924 168.001 64.129 166.822 65.7344C165.599 67.3398 164.987 68.7716 164.987 70.0299C164.987 70.8109 165.249 71.44 165.773 71.9173C166.254 72.438 167.04 72.6983 168.132 72.6983Z" fill="url(#paint7_linear_301_9)"/>
<path fill-rule="evenodd" clip-rule="evenodd" d="M47.7695 75.3192C41.534 77.2299 37.5634 79.1981 35.5071 80.8033C35.0949 81.1251 34.5061 81.0435 34.192 80.6212C33.8779 80.1988 33.9575 79.5956 34.3697 79.2738C36.6925 77.4605 40.9168 75.412 47.2318 73.477C53.5682 71.5354 62.0747 69.6886 73.0154 68.3162C94.8976 65.5713 126.558 64.719 170.147 68.8258C170.664 68.8745 171.043 69.3425 170.996 69.8713C170.949 70.4 170.492 70.7892 169.976 70.7406C126.486 66.6432 94.9636 67.5002 73.2435 70.2248C62.3831 71.5871 53.9835 73.4151 47.7695 75.3192Z" fill="url(#paint8_linear_301_9)"/>
<defs>
<linearGradient id="paint0_linear_301_9" x1="117.23" y1="20.3866" x2="100.897" y2="79.3277" gradientUnits="userSpaceOnUse">
<stop stop-color="#E90000"/>
<stop offset="1" stop-color="#FF00E5"/>
</linearGradient>
<linearGradient id="paint1_linear_301_9" x1="117.23" y1="20.3866" x2="100.897" y2="79.3277" gradientUnits="userSpaceOnUse">
<stop stop-color="#E90000"/>
<stop offset="1" stop-color="#FF00E5"/>
</linearGradient>
<linearGradient id="paint2_linear_301_9" x1="117.23" y1="20.3866" x2="100.897" y2="79.3277" gradientUnits="userSpaceOnUse">
<stop stop-color="#E90000"/>
<stop offset="1" stop-color="#FF00E5"/>
</linearGradient>
<linearGradient id="paint3_linear_301_9" x1="117.23" y1="20.3866" x2="100.897" y2="79.3277" gradientUnits="userSpaceOnUse">
<stop stop-color="#E90000"/>
<stop offset="1" stop-color="#FF00E5"/>
</linearGradient>
<linearGradient id="paint4_linear_301_9" x1="117.23" y1="20.3866" x2="100.897" y2="79.3277" gradientUnits="userSpaceOnUse">
<stop stop-color="#E90000"/>
<stop offset="1" stop-color="#FF00E5"/>
</linearGradient>
<linearGradient id="paint5_linear_301_9" x1="117.23" y1="20.3866" x2="100.897" y2="79.3277" gradientUnits="userSpaceOnUse">
<stop stop-color="#E90000"/>
<stop offset="1" stop-color="#FF00E5"/>
</linearGradient>
<linearGradient id="paint6_linear_301_9" x1="117.23" y1="20.3866" x2="100.897" y2="79.3277" gradientUnits="userSpaceOnUse">
<stop stop-color="#E90000"/>
<stop offset="1" stop-color="#FF00E5"/>
</linearGradient>
<linearGradient id="paint7_linear_301_9" x1="117.23" y1="20.3866" x2="100.897" y2="79.3277" gradientUnits="userSpaceOnUse">
<stop stop-color="#E90000"/>
<stop offset="1" stop-color="#FF00E5"/>
</linearGradient>
<linearGradient id="paint8_linear_301_9" x1="151.92" y1="67.2194" x2="102.358" y2="79.4655" gradientUnits="userSpaceOnUse">
<stop stop-color="#E90000"/>
<stop offset="1" stop-color="#FF00E5"/>
</linearGradient>
</defs>
</svg>
